<svg width="20" height="20" viewBox="0 0 20 20" fill="none" xmlns="http://www.w3.org/2000/svg">
<path d="M16.6667 18.3335V14.1668C16.6667 12.5955 16.6667 11.8098 16.1785 11.3217C15.6903 10.8335 14.9047 10.8335 13.3333 10.8335L10 18.3335L6.66667 10.8335C5.09532 10.8335 4.30964 10.8335 3.82149 11.3217C3.33333 11.8098 3.33333 12.5955 3.33333 14.1668V18.3335" stroke="#98A2B3" stroke-width="1.5" stroke-linecap="round" stroke-linejoin="round"/>
<path d="M10 12.4999L9.58333 15.8333L10 17.0833L10.4167 15.8333L10 12.4999ZM10 12.4999L9.16667 10.8333H10.8333L10 12.4999Z" stroke="#98A2B3" stroke-width="1.5" stroke-linecap="round" stroke-linejoin="round"/>
<path d="M12.9167 5.41675V4.58342C12.9167 2.97259 11.6108 1.66675 10 1.66675C8.38917 1.66675 7.08333 2.97259 7.08333 4.58342V5.41675C7.08333 7.02758 8.38917 8.3334 10 8.3334C11.6108 8.3334 12.9167 7.02758 12.9167 5.41675Z" stroke="#98A2B3" stroke-width="1.5" stroke-linecap="round" stroke-linejoin="round"/>
</svg>
