<svg width="50" height="50" viewBox="0 0 62 62" fill="none" xmlns="http://www.w3.org/2000/svg">
<mask id="mask0_8571_35757" style="mask-type:luminance" maskUnits="userSpaceOnUse" x="0" y="0" width="62" height="62">
<path d="M61.247 0.151611H0.219727V61.3418H61.247V0.151611Z" fill="white"/>
</mask>
<g mask="url(#mask0_8571_35757)">
<path d="M30.7334 0.151611C13.9107 0.151611 0.219727 13.9119 0.219727 30.8239C0.219727 47.7361 13.9107 61.3376 30.7334 61.3376C47.556 61.3376 61.247 47.6466 61.247 30.8239C61.247 14.0014 47.5602 0.151611 30.7334 0.151611ZM30.7334 58.5442C15.4501 58.5442 3.01331 46.1113 3.01331 30.8239C3.01331 15.5367 15.4501 3.11217 30.7334 3.11217C46.0166 3.11217 58.4492 15.5449 58.4492 30.8281C58.4492 46.1113 46.0166 58.548 30.7334 58.548V58.5442ZM30.7334 5.41708C16.7206 5.41708 5.3223 16.8154 5.3223 30.8239C5.3223 44.8327 16.7206 56.2351 30.7334 56.2351C44.746 56.2351 56.1404 44.8368 56.1404 30.8239C56.1404 16.8113 44.746 5.41708 30.7334 5.41708ZM30.7334 53.4945C18.2314 53.4945 8.06296 43.3259 8.06296 30.8239C8.06296 18.3221 18.2314 7.99482 30.7334 7.99482C43.2353 7.99482 53.3998 18.2366 53.3998 30.8239C53.3998 43.4115 43.2312 53.4945 30.7334 53.4945Z" fill="#7FF68C"/>
<path d="M48.2887 39.2292C45.76 45.468 40.0586 49.9598 33.4087 50.9535C32.4517 51.0958 31.4989 51.1651 30.5499 51.1651C26.4939 51.1651 22.556 49.8742 19.2371 47.4144C15.1404 44.3808 12.469 39.9338 11.7197 34.8923C11.402 32.7789 11.4428 30.6531 11.8337 28.5762L19.5426 30.026C19.4163 30.6977 19.3552 31.3779 19.3552 32.062H30.615V39.9094H22.5316C22.951 40.3411 23.4112 40.744 23.9081 41.1105C26.3188 42.8985 29.2835 43.6354 32.2522 43.1917C36.1698 42.6092 39.5292 39.9623 41.0158 36.285L48.2887 39.2292Z" fill="#7FF68C"/>
</g>
</svg>
