<svg width="20" height="20" viewBox="0 0 20 20" fill="none" xmlns="http://www.w3.org/2000/svg">
<path d="M7.19012 10.5613H6.80765C5.57121 10.5613 4.95298 10.5613 4.68947 10.1537C4.42595 9.74608 4.67703 9.17817 5.1792 8.04236L6.6889 4.62769C7.14548 3.595 7.37377 3.07865 7.81664 2.78932C8.25952 2.5 8.82159 2.5 9.94584 2.5H11.687C13.0527 2.5 13.7355 2.5 13.993 2.94613C14.2506 3.39225 13.9118 3.98823 13.2343 5.18019L12.341 6.75157C12.0042 7.34413 11.8358 7.64041 11.8381 7.88293C11.8412 8.19813 12.0088 8.4885 12.2795 8.6475C12.4878 8.76992 12.8273 8.76992 13.5062 8.76992C14.3644 8.76992 14.7936 8.76992 15.0171 8.9185C15.3074 9.1115 15.4594 9.45683 15.4062 9.80267C15.3652 10.0688 15.0765 10.388 14.4992 11.0264L9.88659 16.1269C8.98059 17.1288 8.52758 17.6297 8.22339 17.4712C7.91919 17.3126 8.06528 16.6518 8.35742 15.3302L8.92975 12.7413C9.15217 11.735 9.26342 11.2318 8.99592 10.8966C8.72842 10.5613 8.21564 10.5613 7.19012 10.5613Z" stroke="#98A2B3" stroke-width="1.5" stroke-linejoin="round"/>
</svg>
