<svg width="20" height="20" viewBox="0 0 20 20" fill="none" xmlns="http://www.w3.org/2000/svg">
<path d="M2.08333 9.99992C2.08333 6.26797 2.08333 4.40199 3.2427 3.24262C4.40207 2.08325 6.26805 2.08325 10 2.08325C13.732 2.08325 15.5979 2.08325 16.7573 3.24262C17.9167 4.40199 17.9167 6.26797 17.9167 9.99992C17.9167 13.7319 17.9167 15.5978 16.7573 16.7572C15.5979 17.9166 13.732 17.9166 10 17.9166C6.26805 17.9166 4.40207 17.9166 3.2427 16.7572C2.08333 15.5978 2.08333 13.7319 2.08333 9.99992Z" stroke="#98A2B3" stroke-width="1.5"/>
<path d="M10.2018 14.1665V9.99984C10.2018 9.607 10.2018 9.41058 10.0798 9.28854C9.95774 9.1665 9.76133 9.1665 9.36849 9.1665" stroke="#98A2B3" stroke-width="1.5" stroke-linecap="round" stroke-linejoin="round"/>
<path d="M9.99333 6.6665H10.0008" stroke="#98A2B3" stroke-width="2" stroke-linecap="round" stroke-linejoin="round"/>
</svg>
