<svg width="20" height="20" viewBox="0 0 20 20" fill="none" xmlns="http://www.w3.org/2000/svg">
<path d="M3.76046 16.2389C5.85415 18.2329 8.34666 17.4353 9.34366 16.6277C9.8595 16.2099 10.0914 15.9398 10.2907 15.7404C10.9887 15.0923 10.9438 14.4443 10.4902 13.9259C10.3087 13.7184 9.14425 12.5999 8.02761 11.4533C7.44935 10.875 7.05055 10.4663 6.70957 10.1373C6.25295 9.68212 5.85415 9.1602 5.25595 9.17512C4.7076 9.17512 4.30881 9.6587 3.81031 10.1572C3.23685 10.7306 2.81331 11.4533 2.66376 12.1014C2.21511 13.9956 2.91301 15.3415 3.76046 16.2389ZM3.76046 16.2389L1.66676 18.3325" stroke="#98A2B3" stroke-width="1.5" stroke-linecap="round"/>
<path d="M16.2389 3.76216C14.1447 1.76721 11.6607 2.57984 10.6635 3.3878C10.1475 3.80583 9.91558 4.07605 9.71608 4.27555C9.018 4.92391 9.06292 5.57226 9.51667 6.09095C9.58192 6.16557 9.77433 6.35802 10.0458 6.62724M16.2389 3.76216C17.0867 4.65989 17.794 6.02112 17.3452 7.91632C17.1956 8.56465 16.772 9.28765 16.1983 9.8614C15.6997 10.3601 15.3008 10.8439 14.7523 10.8439C14.1539 10.8589 13.8434 10.4261 13.3867 9.97081M16.2389 3.76216L18.3332 1.66748M10.0458 6.62724C10.5296 7.10682 11.2646 7.83 11.9799 8.56465C12.5583 9.14331 13.0456 9.64165 13.3867 9.97081M10.0458 6.62724L8.7595 7.92164M13.3867 9.97081L12.0853 11.2412" stroke="#98A2B3" stroke-width="1.5" stroke-linecap="round"/>
</svg>
