<svg width="20" height="20" viewBox="0 0 20 20" fill="none" xmlns="http://www.w3.org/2000/svg">
<path d="M17.3116 15C17.936 15 18.4327 14.6071 18.8786 14.0576C19.7915 12.9328 18.2927 12.034 17.721 11.5938C17.1399 11.1463 16.4911 10.8928 15.8332 10.8333M14.9999 9.16667C16.1505 9.16667 17.0832 8.23392 17.0832 7.08333C17.0832 5.93274 16.1505 5 14.9999 5" stroke="#98A2B3" stroke-width="1.5" stroke-linecap="round"/>
<path d="M2.68825 15C2.06383 15 1.56718 14.6071 1.12123 14.0576C0.208358 12.9328 1.70718 12.034 2.27882 11.5938C2.85993 11.1463 3.50877 10.8928 4.16662 10.8333M4.58329 9.16667C3.43269 9.16667 2.49995 8.23392 2.49995 7.08333C2.49995 5.93274 3.43269 5 4.58329 5" stroke="#98A2B3" stroke-width="1.5" stroke-linecap="round"/>
<path d="M6.7364 12.5927C5.88492 13.1192 3.65238 14.1943 5.01215 15.5396C5.67638 16.1967 6.41617 16.6667 7.34625 16.6667H12.6536C13.5837 16.6667 14.3234 16.1967 14.9877 15.5396C16.3474 14.1943 14.1149 13.1192 13.2634 12.5927C11.2667 11.3581 8.73308 11.3581 6.7364 12.5927Z" stroke="#98A2B3" stroke-width="1.5" stroke-linecap="round" stroke-linejoin="round"/>
<path d="M12.9166 6.24992C12.9166 7.86075 11.6107 9.16659 9.99992 9.16659C8.38908 9.16659 7.08323 7.86075 7.08323 6.24992C7.08323 4.63909 8.38908 3.33325 9.99992 3.33325C11.6107 3.33325 12.9166 4.63909 12.9166 6.24992Z" stroke="#98A2B3" stroke-width="1.5"/>
</svg>
